<svg xmlns="http://www.w3.org/2000/svg" role="img" viewBox="0 0 38 24" width="38" height="24" aria-labelledby="pi-astrapay"><title id="pi-{your-icon}">AstraPay</title><path fill="#000" opacity=".07" d="M35 0H3C1.3 0 0 1.3 0 3v18c0 1.7 1.4 3 3 3h32c1.7 0 3-1.3 3-3V3c0-1.7-1.4-3-3-3z"/><path fill="#fff" d="M35 1c1.1 0 2 .9 2 2v18c0 1.1-.9 2-2 2H3c-1.1 0-2-.9-2-2V3c0-1.1.9-2 2-2h32"/><g clip-path="url(#pi-a)"><path d="M19.878 3.04c.075.038.128.092.191.114.475.168.9.424 1.218.811.257.315.46.677.67 1.029.363.609.713 1.226 1.067 1.841a827.333 827.333 0 0 1 2.032 3.571c.213.378.332.779.38 1.215a2.861 2.861 0 0 1-.3 1.64c-.464.915-1.19 1.51-2.228 1.662-.12.017-.241.036-.362.036-2.356.002-4.712.007-7.069-.001-.647-.002-1.21-.256-1.716-.66-.603-.482-.948-1.119-1.096-1.862-.115-.579-.067-1.167.199-1.694.358-.712.772-1.397 1.165-2.092.358-.635.718-1.269 1.08-1.902.363-.632.723-1.266 1.097-1.893.189-.317.373-.647.615-.922.323-.37.731-.641 1.213-.781a.411.411 0 0 0 .157-.1c.55-.013 1.11-.013 1.687-.013Zm2.843 8.897c.163-.482.1-.945-.144-1.377-.595-1.054-1.188-2.11-1.808-3.149a1.992 1.992 0 0 0-3.45.012 164.644 164.644 0 0 0-1.809 3.147c-.454.809-.259 1.776.443 2.3.73.543 1.71.462 2.358-.197.142-.144.275-.296.418-.438.197-.196.44-.196.638 0 .125.123.24.256.364.381.935.947 2.51.603 2.99-.68ZM10.039 19.724c.026-.04.066-.056.076-.084.267-.731.526-1.465.798-2.194.03-.08.123-.185.194-.192.431-.04.581-.068.725.375.252.777.521 1.55.782 2.323.065.194.015.246-.185.268-.222.024-.334-.064-.385-.276-.038-.159-.101-.312-.154-.469h-1.135c-.043.147-.094.296-.131.45-.075.302-.264.385-.57.244-.015-.137-.015-.282-.015-.445Zm1.52-1.332-.227-.675-.442 1.275h.87a20.05 20.05 0 0 1-.202-.6ZM26.265 21.04c-.138-.194-.011-.3.11-.43.163-.175.302-.374.402-.5-.17-.314-.325-.554-.434-.814-.151-.358-.269-.73-.398-1.097-.038-.108-.096-.223.061-.294.17-.078.345-.045.425.096.04.071.06.155.088.232.164.448.328.896.54 1.345.105-.294.22-.586.311-.884.07-.225.1-.462.167-.688.045-.156.189-.15.316-.135.054.006.104.046.17.07.016.184.016.368.002.562a.382.382 0 0 0-.063.107c-.204.675-.446 1.333-.823 1.931-.108.171-.23.333-.347.498h-.527ZM21.767 19.285c0 .253-.009.489.002.723.007.154-.054.212-.199.208-.152-.004-.327.03-.347-.199-.01-.103-.002-.208-.002-.313 0-.704.005-1.41-.004-2.114-.002-.16.04-.277.192-.31.517-.117 1.041-.188 1.527.097.445.26.471.606.416 1.038-.05.396-.383.687-.782.74-.215.027-.435.024-.651.044-.052.005-.101.044-.152.086Zm0-1.36v.84c.285-.043.541-.058.783-.126.233-.066.272-.284.267-.5-.004-.206-.12-.387-.321-.426-.234-.045-.477-.042-.73-.062v.274ZM24.262 18.843c.144-.014.27-.024.397-.04.12-.016.24-.037.36-.056.027-.312-.205-.476-.448-.45-.2.022-.397.08-.598.11-.069.011-.203-.004-.206-.025-.017-.104-.041-.276.01-.31a1.24 1.24 0 0 1 .52-.2c.29-.028.589-.041.867.107a.672.672 0 0 1 .38.62c.008.386-.002.772.003 1.157.002.163-.067.28-.207.342-.457.203-.925.232-1.393.037a.678.678 0 0 1-.385-.617c.026-.337.21-.565.516-.636.056-.013.111-.026.184-.04Zm-.058.47c-.161.174-.14.402.077.45.218.05.457.005.687-.007.025-.002.066-.06.067-.095.007-.165.003-.331.003-.523-.291.054-.551.103-.834.174ZM19.468 17.863c.317-.016.59.043.818.253a.597.597 0 0 1 .195.465c-.001.392-.01.784.003 1.175.007.19-.089.294-.236.358a1.811 1.811 0 0 1-1.183.093c-.353-.088-.578-.367-.57-.682.007-.361.25-.62.654-.68.27-.04.544-.065.816-.097-.02-.503-.34-.483-.767-.434-.086.01-.168.06-.253.084-.102.03-.217.117-.278-.064-.048-.143.005-.31.15-.348.207-.056.421-.084.651-.123Zm-.429 1.636c-.01.142.054.264.186.275.223.019.45-.003.675-.017.026-.001.069-.06.07-.093.008-.166.004-.333.004-.496-.18.01-.338 0-.485.035-.17.04-.383.033-.45.296ZM13.408 17.95a1.588 1.588 0 0 1 1.103.008c.15.052.229.175.197.335-.023.116-.075.184-.233.126a2.554 2.554 0 0 0-.612-.12c-.154-.016-.306.07-.302.224.003.082.15.189.252.236.235.107.486.176.724.276.25.104.277.354.28.57a.561.561 0 0 1-.376.55 1.552 1.552 0 0 1-1.23-.03c-.261-.12-.282-.328-.111-.49.289.069.542.138.8.183.077.013.178-.029.248-.075.06-.04.13-.126.127-.187-.004-.073-.067-.177-.132-.204-.214-.092-.44-.16-.663-.23-.237-.073-.417-.2-.44-.47-.025-.303.039-.565.368-.702ZM15.688 18.922v.529c.002.297.188.432.47.354.1-.027.23-.155.3.042.067.185.003.303-.203.367-.326.103-.64.046-.914-.141-.188-.128-.188-.367-.192-.565-.016-.692-.005-1.385-.008-2.077 0-.103.03-.152.143-.159.352-.02.404.025.404.382v.326c.206 0 .393.003.58 0 .111-.002.202-.003.203.157.002.149-.023.264-.192.272-.187.009-.375.002-.59.002v.51ZM16.864 18.24c.13-.109.243-.25.382-.284.257-.064.53-.091.796-.085.266.007.333.196.22.401l-.76.1c-.112.015-.142.079-.14.188.005.47.003.94 0 1.409 0 .117.043.255-.166.25-.27-.006-.373-.063-.376-.271a32.732 32.732 0 0 1 0-1.077c.004-.206.025-.411.044-.632Z" fill="#0045E5"/><path d="M22.715 11.95c-.474 1.269-2.049 1.614-2.984.666-.124-.125-.24-.258-.364-.381-.199-.196-.44-.196-.638 0-.143.142-.276.294-.418.438-.649.66-1.629.74-2.358.197-.702-.524-.897-1.491-.443-2.3a164.644 164.644 0 0 1 1.81-3.147 1.992 1.992 0 0 1 3.449-.012c.62 1.04 1.214 2.095 1.808 3.149.244.432.307.895.138 1.39Zm-2.579-3.917c-.038-.068-.074-.138-.116-.204a1.15 1.15 0 0 0-1.956.016c-.075.122-.143.248-.215.372-.53.927-1.066 1.85-1.586 2.782-.253.455-.152.915.225 1.187.388.28.887.221 1.233-.143.134-.142.269-.284.406-.423a1.283 1.283 0 0 1 1.835-.005c.11.11.218.224.325.339.372.398.884.456 1.292.145.41-.31.474-.73.187-1.23-.537-.938-1.075-1.875-1.63-2.836Z" fill="#EBE60B"/><path d="M20.144 8.044c.547.95 1.085 1.887 1.622 2.825.287.5.222.92-.187 1.23-.408.31-.92.253-1.293-.145a14.396 14.396 0 0 0-.324-.339 1.283 1.283 0 0 0-1.835.005c-.137.14-.272.28-.406.423-.346.364-.845.423-1.233.143-.377-.272-.478-.732-.225-1.187.52-.932 1.056-1.855 1.586-2.782.072-.124.14-.25.215-.372a1.15 1.15 0 0 1 1.956-.016c.042.066.078.136.124.215Z" fill="#0146E4"/></g><defs><clipPath id="pi-a"><path fill="#fff" transform="translate(10 3)" d="M0 0h18v18H0z"/></clipPath></defs></svg>