<svg xmlns="http://www.w3.org/2000/svg" role="img" viewBox="0 0 38 24" width="38" height="24" aria-labelledby="pi-ecpay"><title id="pi-{your-icon}">ECPay</title><path fill="#000" opacity=".07" d="M35 0H3C1.3 0 0 1.3 0 3v18c0 1.7 1.4 3 3 3h32c1.7 0 3-1.3 3-3V3c0-1.7-1.4-3-3-3z"/><path fill="#fff" d="M35 1c1.1 0 2 .9 2 2v18c0 1.1-.9 2-2 2H3c-1.1 0-2-.9-2-2V3c0-1.1.9-2 2-2h32"/><path d="M15.872 6.064c-.153.16-.459.912-.68 1.68l-.408 1.376h1.088c1.36 0 2.159.304 2.618.992.782 1.152-.17 2.576-1.853 2.784l-.867.112v2.032h-.595c-.323 0-.595-.064-.595-.144 0-.096-.34-.048-.765.08-.68.224-.782.336-.952.912a5.426 5.426 0 0 0-.221 1.392c-.017.656.017.72.408.768.391.032 11.849-2.896 12.036-3.088.051-.048-.034-.08-.187-.08-.238 0-.289-.192-.289-1.2v-1.216L23.42 10.8l-1.19-1.68h.714c.714 0 .748.032 1.496 1.12.425.608.799 1.12.85 1.104.051 0 .459-.496.918-1.104.578-.784.952-1.12 1.19-1.12.204 0-2.057-.752-4.998-1.68-2.941-.928-5.559-1.68-5.797-1.68-.238 0-.561.128-.731.304Zm6.579 5.872c.714 1.536 1.309 2.88 1.309 2.96 0 .096-.272.144-.612.112-.561-.048-.646-.112-.918-.768l-.306-.72-1.173-.048-1.173-.048-.306.816c-.306.784-.323.8-.986.8-.374 0-.646-.064-.612-.128.034-.08.646-1.408 1.394-2.96 1.768-3.744 1.666-3.744 3.383-.016Z" fill="#05A643"/><path d="M20.462 11.584c-.153.352-.238.656-.204.688.034.048.306.048.595.016l.51-.048-.306-.64-.306-.64-.289.624Z" fill="#05A643"/><path d="M4.975 9.584c-.986.56-1.615 1.6-1.615 2.608.017.768.561 1.792 1.207 2.224.867.576 2.499.544 3.604-.064.731-.416.799-.496.799-1.072v-.64l-.697.48c-.85.56-1.7.816-2.38.688-.561-.096-1.173-.736-1.173-1.184 0-.288.17-.304 2.125-.304H8.97v-.592c0-.784-.561-1.84-1.173-2.176-.68-.368-2.159-.368-2.822.032Zm2.04.752c.136.064.374.304.527.56l.255.464H6.25c-1.649 0-1.683-.016-.969-.768.34-.352 1.122-.464 1.734-.256ZM11.01 9.632c-.9.592-1.24 1.136-1.326 2.192-.085 1.136.255 1.92 1.105 2.528.782.56 2.21.672 3.18.256.594-.272.662-.368.68-.896.016-.656-.018-.688-.494-.336-1.105.784-2.618.528-3.077-.512-.748-1.696.867-3.12 2.72-2.4.867.336.867.336.85-.256-.017-.688-.51-.928-1.955-.928-.884 0-1.24.08-1.683.352Z" fill="#331170"/><path d="m27.143 10.816-1.207 1.52-.017 1.184c-.017.656.034 1.2.119 1.2.187 0 7.106-1.824 8.313-2.176.646-.208.799-.32.799-.624 0-.208-.085-.432-.204-.496-.119-.08-1.649-.576-3.417-1.12l-3.196-.992-1.19 1.504ZM15.77 11.04c0 .736.034.8.408.8.816 0 1.292-.272 1.292-.768 0-.608-.289-.832-1.054-.832h-.646v.8Z" fill="#05A643"/><path d="M8.902 14.272c-.153.576-.136.608.391.608.476 0 .697-.224.697-.736 0-.144-.187-.224-.493-.224-.357 0-.51.096-.595.352Z" fill="#331170"/></svg>