<svg width="38" height="24" viewBox="0 0 38 24" fill="none" xmlns="http://www.w3.org/2000/svg"><g clip-path="url(#clip0_1_2)"><path fill-rule="evenodd" clip-rule="evenodd" d="M0 1.565C0 .701.773 0 1.727 0h34.546C37.227 0 38 .7 38 1.565v20.87c0 .864-.773 1.565-1.727 1.565H1.727C.773 24 0 23.3 0 22.435V1.565Z" fill="#1434CB"/><path d="m18.791 8.478-1.68 7.122h-2.034l1.682-7.122h2.032Zm8.554 4.598 1.07-2.674.616 2.674h-1.686Zm2.269 2.524h1.88l-1.641-7.122h-1.736c-.39 0-.72.206-.865.523L24.2 15.6h2.135l.424-1.064h2.608l.246 1.064Zm-5.307-2.325c.009-1.88-2.868-1.984-2.848-2.823.006-.256.274-.527.862-.597.291-.034 1.094-.06 2.004.319l.357-1.51a5.965 5.965 0 0 0-1.901-.316c-2.01 0-3.424.968-3.436 2.354-.013 1.025 1.01 1.598 1.78 1.938.792.35 1.058.573 1.055.885-.006.478-.632.69-1.218.697-1.021.015-1.614-.25-2.087-.45l-.369 1.56c.475.198 1.352.37 2.261.38 2.136 0 3.534-.957 3.54-2.437Zm-8.42-4.797L12.591 15.6h-2.149l-1.62-5.684c-.1-.35-.185-.478-.484-.625-.489-.24-1.296-.466-2.006-.606l.049-.207h3.46c.44 0 .836.266.936.726l.857 4.121 2.116-4.847h2.135Z" fill="#fff"/></g><defs><clipPath id="clip0_1_2"><path fill="#fff" d="M0 0h38v24H0z"/></clipPath></defs></svg>
