<svg width="38" height="24" fill="none" xmlns="http://www.w3.org/2000/svg"><g clip-path="url(#a)"><path opacity=".07" d="M35 0H3a3 3 0 0 0-3 3v18a3 3 0 0 0 3 3h32a3 3 0 0 0 3-3V3a3 3 0 0 0-3-3Z" fill="#000"/><path d="M35 1a2 2 0 0 1 2 2v18a2 2 0 0 1-2 2H3a2 2 0 0 1-2-2V3a2 2 0 0 1 2-2h32Z" fill="#E40001"/><path d="M3.39 9.915c.087.185-.154 2.431-.293 2.7-.073.147-.059.154.27.154h.351l.015-.638c.007-.346.044-.785.073-.977l.059-.346.329.846c.307.784.35.854.643 1.023.175.1.329.177.336.162.015-.016.147-.416.293-.877.146-.47.292-.893.329-.947.073-.123.256 1.385.19 1.6-.044.147-.015.154.504.154.308 0 .556-.015.556-.038 0-.016-.036-.108-.073-.208-.117-.27-.35-2.5-.278-2.638.059-.1-.007-.116-.482-.116h-.549l-.27.885c-.154.485-.293.861-.315.838-.022-.023-.19-.407-.38-.861l-.336-.823-.527-.023c-.512-.023-.526-.016-.446.13ZM11.717 9.877c.059.077.08.523.066 1.5l-.022 1.392h1.01c.752 0 1.001-.023 1.001-.1 0-.046.022-.169.044-.269.044-.162.036-.17-.146-.092a1.5 1.5 0 0 1-.827.03c-.16-.046-.168-.076-.168-1.115 0-.585.03-1.146.073-1.254l.074-.2h-.593c-.504 0-.585.016-.512.108ZM14.32 11.27v1.5h1.053l-.073-.224c-.044-.123-.066-.423-.051-.67l.022-.453h.877l.022.515c.015.285-.014.593-.058.677-.073.146-.059.154.453.154h.534l-.022-1.392c-.015-.992 0-1.423.066-1.5.073-.092 0-.108-.505-.108h-.592l.073.223c.044.123.066.393.051.593l-.022.376h-.877l-.022-.407c-.015-.285.015-.477.095-.6l.11-.185H14.32v1.5ZM17.698 9.862c.03.053.074.646.096 1.307.036 1.2.036 1.216.24 1.423.176.193.257.216.659.216.358 0 .504-.039.694-.177.235-.177.235-.177.235-.023 0 .146.043.161.468.161h.475l-.073-.223c-.088-.254-.059-2.446.036-2.646.051-.115.008-.13-.504-.13s-.556.015-.505.13c.037.077.066.592.066 1.154 0 1.1-.03 1.192-.417 1.292-.139.039-.234.008-.343-.107-.14-.147-.154-.247-.154-1.224 0-.723.03-1.092.088-1.153.066-.07-.044-.093-.52-.093-.46 0-.584.023-.54.093ZM21.15 9.877c.058.077.08.523.066 1.5l-.023 1.392h.534c.512 0 .527-.008.454-.154-.095-.184-.073-2.5.029-2.715.051-.115.007-.13-.541-.13-.512 0-.592.015-.52.107ZM22.839 9.97c.044.107.073.691.073 1.3 0 .607-.03 1.191-.073 1.3l-.073.2h2.032l.08-.247c.103-.292.081-.315-.168-.215-.11.038-.307.077-.445.077-.483 0-.476.023-.476-1.262 0-.808.03-1.2.088-1.261.066-.07-.044-.093-.512-.093h-.6l.074.2ZM25.398 9.93c.051.1.073.624.058 1.5l-.022 1.34h1.01c.753 0 1.001-.024 1.001-.1 0-.047.022-.17.044-.27.044-.162.037-.17-.146-.092-.22.084-.702.1-.878.03-.102-.038-.117-.215-.117-1.161 0-.615.037-1.177.074-1.262.073-.138.05-.146-.512-.146-.57 0-.585.008-.512.162ZM28 9.9c.103.215.125 2.53.03 2.715-.073.146-.058.154.453.154h.534l-.022-1.392c-.014-.992 0-1.423.066-1.5.073-.092-.007-.108-.52-.108-.547 0-.591.016-.54.131ZM29.639 9.915c.044.085.073.67.073 1.354 0 .685-.03 1.27-.073 1.354-.073.139-.044.146.972.146h1.053l.197-.308c.169-.269.176-.307.066-.307a.923.923 0 0 0-.314.115c-.19.116-.702.154-.907.07-.087-.039-.117-.162-.117-.5 0-.493.059-.547.468-.378.183.07.19.062.19-.192 0-.269 0-.269-.329-.269h-.329v-.769h.315c.175 0 .35.038.402.092.066.07.088.023.088-.23v-.324h-.914c-.885 0-.914.008-.841.146ZM32.264 9.877c.066.077.08.508.066 1.5l-.023 1.392h.534c.505 0 .527-.008.454-.146-.037-.084-.074-.37-.074-.638V11.5l.366.6c.205.33.439.623.534.662.088.038.336.046.548.023l.388-.039-.14-.161c-.08-.085-.292-.4-.482-.7l-.336-.539.212-.17c.497-.407.453-1-.095-1.26-.395-.193-2.091-.224-1.952-.04Zm1.425.523c.066.092.117.23.117.3 0 .192-.285.53-.446.53-.124 0-.139-.053-.139-.5 0-.476.008-.5.176-.5.102 0 .234.078.293.17ZM8.252 10.154l.285.307.175-.176a1.39 1.39 0 0 0 .242-.308c.065-.115.022-.13-.461-.13h-.527l.286.307ZM9.531 9.908c0 .03.11.169.241.307l.242.246.234-.253c.131-.139.234-.277.234-.308 0-.03-.212-.054-.475-.054-.264 0-.476.03-.476.062ZM9.02 10.192l-.25.27h1.01l-.249-.27c-.139-.146-.248-.269-.256-.269-.007 0-.117.123-.256.27ZM10.482 10.192l-.249.27h1.009l-.248-.27c-.14-.146-.249-.269-.256-.269-.008 0-.117.123-.256.27ZM7.52 10.23l-.212.231h.512l.505-.007-.256-.223c-.14-.123-.278-.231-.3-.231-.022 0-.132.1-.249.23ZM7.338 10.815c.197.247.336.262.511.07l.169-.193h-.38c-.344 0-.38.016-.3.123ZM8.58 10.885c0 .107.015.192.03.192s.08-.085.146-.192c.117-.185.117-.193-.03-.193-.109 0-.145.054-.145.193ZM9.312 10.815c0 .077.036.108.11.077.065-.023.124 0 .138.054.015.046.088.262.154.47l.132.376.131-.184c.11-.154.154-.17.27-.093.125.077.198.031.571-.369l.424-.454h-.965c-.84 0-.965.016-.965.123ZM8.04 11.215c-.11.139-.11.154.029.285.146.138.146.138.146-.139 0-.33-.007-.33-.175-.146ZM8.734 11.662c-.19.338-.19.353.03.569l.182.177V11.9c0-.285-.014-.515-.029-.515-.015 0-.095.123-.183.277ZM9.32 12.154l-.008.57.146-.155c.146-.154.146-.154.007-.569l-.146-.423v.577Z" fill="#fff"/></g><defs><clipPath id="a"><path fill="#fff" d="M0 0h38v24H0z"/></clipPath></defs></svg>