<?xml version="1.0" encoding="UTF-8"?>
<svg xmlns="http://www.w3.org/2000/svg" xmlns:xlink="http://www.w3.org/1999/xlink" viewBox="0 0 46 30">
  <defs>
    <rect id="a" width="46" height="30" rx="4"></rect>
    <path id="c" d="M2.771 2.645H.054V.01h2.717v2.636z"></path>
    <mask id="b" width="46" height="30" x="0" y="0" fill="#fff">
      <use xlink:href="#a"></use>
    </mask>
  </defs>
  <g fill="none" fill-rule="evenodd">
    <use fill="#FFF" stroke="#DADBD2" stroke-width="2" mask="url(#b)" xlink:href="#a"></use>
    <path fill="#0096E0" d="M37.558 12.295v.213c-.017.064-.004.13-.008.196v.192c.003.536-.082 1.06-.196 1.581a9.362 9.362 0 0 1-1.262 3.018 9.459 9.459 0 0 1-7.222 4.32 9.483 9.483 0 0 1-6.522-1.928c-.02-.017-.045-.032-.058-.06-.01-.05.026-.073.058-.098.262-.206.511-.427.745-.663a9.54 9.54 0 0 0 1.625-2.16 9.33 9.33 0 0 0 1.04-5.93 9.27 9.27 0 0 0-1.598-3.951 9.858 9.858 0 0 0-1.313-1.5 9.053 9.053 0 0 0-.497-.426c-.029-.023-.066-.041-.072-.085.01-.035.04-.052.065-.072A9.47 9.47 0 0 1 27.3 3.018c.405-.03.813-.027 1.22-.015.216.007.432.015.647.037a9.218 9.218 0 0 1 1.616.321 9.375 9.375 0 0 1 3.421 1.828 9.413 9.413 0 0 1 3.285 5.862c.042.286.066.573.066.863v.193c.005.06-.01.123.008.183"></path>
    <path fill="#D31D00" d="M7 12.492v-.167a.439.439 0 0 0 0-.183v-.045c.016-.03.004-.063.008-.094v-.085c0-.556.091-1.1.215-1.639a9.16 9.16 0 0 1 .818-2.206 9.453 9.453 0 0 1 3.606-3.784 9.397 9.397 0 0 1 2.427-1 8.72 8.72 0 0 1 1.397-.249c.462-.042.925-.035 1.388-.028.368.006.731.042 1.093.1a9.334 9.334 0 0 1 2.914.97c.476.251.927.541 1.353.87.024.017.051.034.054.07.001.04-.028.063-.056.085a9.585 9.585 0 0 0-1.015.943c-.293.307-.556.64-.8.988a9.332 9.332 0 0 0-1.604 4.012 9.167 9.167 0 0 0-.098 1.447c.001.53.053 1.057.145 1.58a9.319 9.319 0 0 0 2.421 4.782c.293.312.61.596.94.867.03.026.068.046.073.092-.005.04-.035.061-.063.082a9.572 9.572 0 0 1-1.403.89 9.293 9.293 0 0 1-3.273 1A9.438 9.438 0 0 1 12 20.747a9.455 9.455 0 0 1-2.228-1.639 9.512 9.512 0 0 1-1.897-2.686 9.315 9.315 0 0 1-.825-2.87 5.89 5.89 0 0 1-.036-.636v-.222c-.004-.066.009-.133-.008-.198"></path>
    <path fill="#6B68BE" d="M22.273 5.021c.003-.003.007-.003.011 0 .323.268.637.543.93.843a9.41 9.41 0 0 1 2.415 4.372c.091.375.155.756.197 1.141a9.156 9.156 0 0 1-.057 2.518 9.152 9.152 0 0 1-.59 2.1 9.286 9.286 0 0 1-1.307 2.23 9.713 9.713 0 0 1-.704.798c-.26.264-.535.513-.827.741-.02.016-.04.032-.049.057l-.016-.005c-.15-.128-.304-.254-.45-.386a9.35 9.35 0 0 1-3.105-6.099 9.103 9.103 0 0 1-.009-1.739 9.302 9.302 0 0 1 2.173-5.217c.397-.475.84-.904 1.324-1.29l.068-.06"></path>
    <path fill="#110F0D" d="M12.546 24.365c.208-.291.482-.388.808-.369a.918.918 0 0 1 .756.44.934.934 0 0 1 .589-.414c.22-.047.44-.042.655.028a.892.892 0 0 1 .615.802c.018.258.007.517.008.776.002.286 0 .573.002.86 0 .052-.013.069-.068.067a7.351 7.351 0 0 0-.42 0c-.056.002-.067-.017-.066-.068.002-.426 0-.852 0-1.279a1.094 1.094 0 0 0-.054-.389.449.449 0 0 0-.377-.303c-.443-.063-.728.188-.734.652-.005.414-.001.827-.001 1.24 0 .147 0 .147-.145.147-.112 0-.225-.003-.336.002-.06.003-.071-.016-.071-.072.002-.429 0-.857 0-1.286 0-.099-.003-.197-.028-.294-.065-.247-.206-.369-.46-.396-.356-.038-.63.183-.662.54-.023.255-.007.511-.01.767-.003.226-.002.452 0 .677 0 .047-.008.067-.062.065a9.012 9.012 0 0 0-.435 0c-.044.001-.056-.013-.056-.056v-2.389c0-.038.007-.054.05-.053.15.002.3.002.45 0 .037 0 .049.01.047.047-.002.08 0 .16 0 .262M23.629 24c.402.004.714.06 1.003.215.06.032.07.06.034.118-.06.1-.114.203-.166.308-.023.047-.04.054-.09.029a1.52 1.52 0 0 0-.838-.178.512.512 0 0 0-.25.08.232.232 0 0 0-.112.228c.01.092.077.137.158.166.158.055.324.064.487.089.177.026.35.064.513.14.53.245.488.887.14 1.166a1.18 1.18 0 0 1-.591.24 1.97 1.97 0 0 1-1.173-.176c-.068-.034-.162-.062-.186-.123-.025-.064.06-.127.096-.192.033-.062.076-.12.108-.183.023-.044.041-.047.083-.02.331.222.695.272 1.08.197a.387.387 0 0 0 .208-.105c.109-.11.088-.263-.048-.337-.132-.072-.281-.083-.427-.104-.188-.027-.378-.05-.555-.125-.277-.117-.459-.305-.463-.623-.004-.33.156-.558.45-.695.195-.091.404-.118.54-.115m2.114 1.213c0-.197-.002-.395 0-.593.002-.05-.014-.064-.063-.063-.13.003-.26 0-.39.002-.042 0-.058-.009-.057-.054.003-.13.003-.259 0-.388 0-.045.014-.055.056-.054.127.002.255-.002.382.002.055.002.074-.01.073-.069-.004-.205.002-.411-.003-.616-.002-.067.02-.079.08-.076.127.005.255.005.382 0 .07-.004.095.01.092.087-.007.2 0 .401-.004.601-.001.062.02.074.077.073.249-.003.499 0 .748-.002.05 0 .072.007.07.065a5.768 5.768 0 0 0-.001.372c.002.048-.013.06-.06.059-.251-.002-.504.002-.756-.003-.066 0-.08.02-.078.08.003.348 0 .696.002 1.043 0 .34.156.468.494.413a.96.96 0 0 0 .3-.103c.039-.02.054-.02.068.026.037.121.077.241.122.36.018.047 0 .067-.037.088a1.326 1.326 0 0 1-.954.121c-.313-.083-.492-.307-.53-.657-.003-.04-.011-.08-.011-.12v-.595h-.003zm2.796-.848c.113-.163.24-.276.412-.328.199-.06.397-.04.594.016.03.009.045.02.032.058a15.73 15.73 0 0 0-.14.425c-.012.04-.031.04-.065.028a.803.803 0 0 0-.262-.044c-.33-.007-.526.166-.556.495a2.337 2.337 0 0 0-.01.205c0 .423 0 .847.002 1.27 0 .054-.008.076-.07.074a7.074 7.074 0 0 0-.411 0c-.047 0-.065-.009-.065-.061.002-.794.001-1.587 0-2.381 0-.04.006-.058.052-.057.145.003.29.003.435 0 .047-.001.054.017.052.057-.002.073 0 .147 0 .244m-10.76 1.743c-.444 0-.758-.327-.76-.793-.002-.47.313-.804.757-.806.438-.001.756.335.757.8 0 .466-.312.798-.754.799m1.27-.42.001-1.552c0-.061-.018-.075-.076-.074-.135.005-.27.005-.404 0-.061-.002-.072.019-.068.073.005.07 0 .14 0 .227-.159-.177-.276-.26-.452-.312a1.194 1.194 0 0 0-.91.086c-.42.22-.631.581-.675 1.043-.068.72.384 1.36 1.112 1.436.347.036.656-.048.895-.319.006-.008.011-.024.031-.015 0 .074.002.15-.001.225-.002.043.011.056.055.056.142-.003.285-.004.427 0 .055.002.067-.016.067-.068-.002-.269-.001-.537-.001-.806m2.396-.597h-.594c-.193 0-.386-.002-.579 0-.05.002-.068-.01-.056-.062.116-.5.509-.6.848-.517.228.056.412.293.435.534.004.051-.023.045-.054.045m.584-.15c-.11-.45-.363-.782-.826-.896-.474-.118-.917-.029-1.245.353-.384.447-.419.968-.206 1.499.171.427.517.655.97.711.427.054.824-.03 1.175-.293.041-.031.047-.052.015-.096a4.703 4.703 0 0 1-.198-.297c-.026-.043-.044-.046-.085-.016a1.178 1.178 0 0 1-.653.226c-.38.02-.666-.18-.759-.526-.015-.057-.019-.088.062-.087.283.006.566.002.848.002l.871.001c.047 0 .064-.009.068-.06a1.61 1.61 0 0 0-.037-.522"></path>
    <g transform="translate(29.788 23.986)">
      <mask id="d" fill="#fff">
        <use xlink:href="#c"></use>
      </mask>
      <path fill="#110F0D" d="M1.41 2.13c-.455-.001-.786-.337-.788-.8C.62.864.954.524 1.412.524s.792.34.792.803c-.001.465-.336.802-.794.802m1.323-1.116C2.587.406 2.066.009 1.413.009.318.006-.236 1.09.21 1.947c.259.497.7.706 1.251.698a1.313 1.313 0 0 0 1.272-1.631" mask="url(#d)"></path>
    </g>
  </g>
</svg>
