<?xml version="1.0" encoding="UTF-8"?>
<svg xmlns="http://www.w3.org/2000/svg" xmlns:xlink="http://www.w3.org/1999/xlink" viewBox="0 0 46 30">
  <defs>
    <path id="c" d="M0 18.657V.033h15.178v18.624H0z"></path>
    <path id="e" d="M15.192.037v18.638H.02V.038z"></path>
    <rect id="a" width="46" height="30" rx="4"></rect>
    <mask id="b" width="46" height="30" x="0" y="0" fill="#fff">
      <use xlink:href="#a"></use>
    </mask>
  </defs>
  <g fill="none" fill-rule="evenodd">
    <use fill="#FFF" stroke="#DADBD2" stroke-width="2" mask="url(#b)" xlink:href="#a"></use>
    <g transform="translate(8 3.047)">
      <mask id="d" fill="#fff">
        <use xlink:href="#c"></use>
      </mask>
      <path fill="#ED0006" d="M15.178 16.66c-3.409 2.73-8.502 2.667-11.842-.228C.492 13.968-.582 10.82.301 7.182 1.191 3.517 3.614 1.19 7.307.3c2.792-.67 5.384-.07 7.71 1.614.044.03.083.067.124.1-.05.06-.09.13-.15.179a9.236 9.236 0 0 0-2.287 2.787 9.119 9.119 0 0 0-1.017 5.597 9.059 9.059 0 0 0 .968 3.056c.62 1.187 1.48 2.18 2.522 3.025" mask="url(#d)"></path>
    </g>
    <g transform="translate(23.16 3.047)">
      <mask id="f" fill="#fff">
        <use xlink:href="#e"></use>
      </mask>
      <path fill="#F9A000" d="M.02 2.026c.629-.453 1.272-.885 1.996-1.174 3.612-1.443 6.957-.983 9.947 1.5 1.882 1.562 2.91 3.624 3.175 6.042.424 3.85-1.66 7.638-5.198 9.292-3.37 1.576-6.618 1.252-9.684-.85-.07-.048-.132-.11-.197-.166.044-.05.084-.102.131-.149.446-.446.933-.857 1.331-1.34 1.257-1.53 1.941-3.299 2.065-5.267a8.842 8.842 0 0 0-.293-2.933C2.854 5.4 2.08 4.016.916 2.85.629 2.563.319 2.3.02 2.026" mask="url(#f)"></path>
    </g>
    <path fill="#FF5E00" d="M23.18 5.073c.299.273.609.536.895.823 1.163 1.165 1.938 2.55 2.376 4.13.266.963.355 1.944.293 2.933-.123 1.968-.808 3.737-2.065 5.266-.398.484-.885.896-1.33 1.342-.047.047-.088.1-.131.15l-.04-.01c-1.04-.845-1.901-1.84-2.522-3.026a9.067 9.067 0 0 1-.968-3.056 9.122 9.122 0 0 1 1.017-5.597 9.244 9.244 0 0 1 2.288-2.788c.059-.05.1-.12.148-.18.014 0 .027.005.039.01"></path>
    <path fill="#000" d="M11.681 24.261c.32-.415.732-.494 1.196-.377.341.086.594.318.617.657.041.598.012 1.2.012 1.812h-.52v-.325c0-.35.002-.702-.001-1.054-.003-.408-.188-.624-.533-.63-.36-.007-.602.221-.616.614-.015.424-.005.85-.007 1.273 0 .038-.006.076-.01.124h-.532v-.377c-.006-.39.003-.782-.024-1.17-.02-.285-.196-.434-.466-.458-.293-.026-.534.113-.613.373a1.276 1.276 0 0 0-.045.352c-.005.423-.002.846-.002 1.28h-.54V23.91h.525l.025.257c.219-.258.483-.346.793-.328.309.02.546.159.742.422m23.922 1.659c.437.008.757-.31.77-.766.014-.458-.308-.81-.745-.812-.432-.004-.752.323-.76.778-.009.45.304.79.735.799m1.285.432h-.54l-.017-.241c-.28.256-.596.363-.958.306a1.195 1.195 0 0 1-.84-.523c-.357-.527-.283-1.29.165-1.721.442-.427 1.047-.444 1.634-.031v-1.255l.563.055-.007 3.408m-22.313-1.22c0 .462.304.785.74.788.443.003.762-.332.758-.796-.004-.452-.325-.785-.756-.782-.436.003-.745.33-.744.789m1.455-.993.019-.23h.523v2.44h-.524l-.018-.218c-.658.421-1.285.372-1.712-.124-.421-.491-.41-1.307.025-1.777.442-.48 1.066-.516 1.685-.092m14.564 1.782c.434 0 .75-.326.754-.781.004-.453-.31-.79-.741-.797-.44-.007-.765.33-.764.793 0 .453.316.783.75.784m.71-1.771.026-.243h.513v2.441h-.515l-.024-.241a1.08 1.08 0 0 1-1.007.301 1.188 1.188 0 0 1-.738-.443c-.404-.515-.359-1.317.096-1.773.445-.445 1.094-.469 1.65-.043m-7.407.756c-.007-.347-.24-.578-.58-.584-.373-.008-.632.221-.65.584h1.23zm-1.238.495c.086.375.38.59.787.534.219-.03.43-.124.682-.2l.241.347c-.41.328-.865.414-1.357.31-.703-.15-1.094-.872-.898-1.639.174-.68.834-1.06 1.519-.874.553.15.948.776.862 1.347-.02.135-.108.113-.191.113-.474.002-.949 0-1.423.002-.072 0-.144.014-.216.022l-.007.039zm-5.542.693.218-.357c.25.073.474.164.706.197.172.024.36-.007.529-.057.078-.023.167-.146.172-.23.004-.063-.104-.166-.183-.195-.141-.052-.3-.06-.45-.091-.143-.03-.29-.054-.427-.104-.279-.101-.464-.29-.475-.6-.011-.325.133-.575.435-.698.548-.224 1.08-.14 1.62.125l-.212.396c-.283-.056-.541-.112-.801-.156a.55.55 0 0 0-.218.02c-.139.035-.277.113-.242.264.02.085.15.177.25.204.267.076.555.092.817.182.403.14.572.506.416.876a.862.862 0 0 1-.282.348c-.47.335-1.42.267-1.875-.125m3.069-2.931h.55v.73h.874v.496h-.85c0 .44-.012.861.006 1.281.008.178.162.259.333.243.156-.014.31-.063.486-.101l.144.404c-.305.25-.903.29-1.215.083-.207-.136-.297-.342-.307-.576-.014-.357-.01-.715-.012-1.073v-.252h-.49v-.498h.485v-.738zm8.82.977-.246.41c-.608-.281-.992-.256-1.247.073-.227.294-.215.778.027 1.054.268.306.676.322 1.212.034l.252.409c-.475.437-1.373.41-1.842-.045-.482-.467-.506-1.329-.053-1.829.452-.498 1.342-.557 1.898-.107m4.98.261c-.048-.01-.073-.016-.099-.02-.52-.104-.766.091-.77.615-.004.385 0 .77-.002 1.154 0 .064-.005.13-.009.204h-.523V23.9h.505l.029.254c.289-.35.63-.379 1.028-.257l-.16.496m-8.42 1.957h-.501v-2.448h.507l.025.247c.282-.34.624-.374 1.026-.25l-.16.483c-.701-.097-.875.057-.876.758 0 .384-.002.768-.004 1.153 0 .012-.007.024-.018.058"></path>
  </g>
</svg>
